<?xml version="1.0" encoding="UTF-8"?>
<svg version="1.1" xmlns="http://www.w3.org/2000/svg" width="300" height="300">
<path d="M0 0 C0.99 0 1.98 0 3 0 C3.495 0.99 3.495 0.99 4 2 C5.09957031 2.04898438 6.19914063 2.09796875 7.33203125 2.1484375 C15.69645811 2.55694379 23.80618753 3.15672856 32 5 C32.79535156 5.16628906 33.59070313 5.33257812 34.41015625 5.50390625 C36.29238277 5.92549843 38.15060876 6.45203223 40 7 C40.33 7.66 40.66 8.32 41 9 C45.20816079 11.16784041 49.35542174 11.52767001 54 12 C54.103125 12.639375 54.20625 13.27875 54.3125 13.9375 C54.539375 14.618125 54.76625 15.29875 55 16 C55.99 16.33 56.98 16.66 58 17 C58.12375 17.969375 58.2475 18.93875 58.375 19.9375 C58.58125 20.948125 58.7875 21.95875 59 23 C59.66 23.33 60.32 23.66 61 24 C61 24.99 61 25.98 61 27 C61.99 27 62.98 27 64 27 C65.625 28.0625 65.625 28.0625 67 30 C67.6875 33.6875 67.6875 33.6875 68 37 C68.99 37 69.98 37 71 37 C70.97679687 37.72445312 70.95359375 38.44890625 70.9296875 39.1953125 C70.91164063 40.16210938 70.89359375 41.12890625 70.875 42.125 C70.85179687 43.07632813 70.82859375 44.02765625 70.8046875 45.0078125 C70.86123096 48.0175226 70.86123096 48.0175226 72 50.75390625 C73.1003965 54.32589644 73.22832696 57.19905381 73.1953125 60.9296875 C73.18564453 62.86328125 73.18564453 62.86328125 73.17578125 64.8359375 C73.15907463 66.18229442 73.14214479 67.52864859 73.125 68.875 C73.11495664 70.24478517 73.10583317 71.61457742 73.09765625 72.984375 C73.07414412 76.32309756 73.0412793 79.66145761 73 83 C73.66 83.33 74.32 83.66 75 84 C75 84.66 75 85.32 75 86 C73.68 86.33 72.36 86.66 71 87 C71.03480469 87.69867188 71.06960938 88.39734375 71.10546875 89.1171875 C71.13253906 90.02726562 71.15960938 90.93734375 71.1875 91.875 C71.22230469 92.77992188 71.25710938 93.68484375 71.29296875 94.6171875 C71.14794922 95.79667969 71.14794922 95.79667969 71 97 C70.01 97.66 69.02 98.32 68 99 C66.80767387 101.05003955 66.80767387 101.05003955 66 103 C65.34 103 64.68 103 64 103 C64 103.99 64 104.98 64 106 C63.01 106.495 63.01 106.495 62 107 C61.54625 107.825 61.0925 108.65 60.625 109.5 C59 112 59 112 56.9375 112.5 C56.298125 112.665 55.65875 112.83 55 113 C54.28272222 114.64551962 53.61674772 116.31422289 53 118 C50 120 50 120 47 120 C46.67 120.99 46.34 121.98 46 123 C37.64577192 126.6415866 27.84619005 127.35935979 18.90625 128.53515625 C16.07074441 128.83948784 16.07074441 128.83948784 14 130 C8.76815167 130.30407324 3.56611525 130.14246627 -1.625 129.4375 C-6.19459543 128.85502015 -10.47173859 129.22075807 -15 130 C-15.68191406 130.10441406 -16.36382812 130.20882812 -17.06640625 130.31640625 C-19.58224987 131.20584591 -20.50731224 132.46628157 -22.125 134.5625 C-23.6328125 136.50390625 -23.6328125 136.50390625 -25 138 C-25.66 138 -26.32 138 -27 138 C-27.33 139.32 -27.66 140.64 -28 142 C-28.99 142 -29.98 142 -31 142 C-31 142.66 -31 143.32 -31 144 C-34.64219734 148.32510934 -38.74369987 151.03163656 -44 153 C-44.99 153 -45.98 153 -47 153 C-47 153.66 -47 154.32 -47 155 C-51.60702078 158.65384407 -57.42116957 159.58340682 -63 161 C-64.39756312 161.38968197 -65.79374278 161.78441746 -67.1875 162.1875 C-68.5796875 162.5896875 -68.5796875 162.5896875 -70 163 C-69.01 163.33 -68.02 163.66 -67 164 C-67 164.66 -67 165.32 -67 166 C-72.94 166 -78.88 166 -85 166 C-85 165.34 -85 164.68 -85 164 C-86.07636719 163.90203125 -87.15273437 163.8040625 -88.26171875 163.703125 C-106.78262623 161.86848673 -106.78262623 161.86848673 -115 158 C-116.01978692 156.68173886 -117.02198933 155.34954545 -118 154 C-120.09415804 153.20376178 -120.09415804 153.20376178 -122 153 C-122.13572155 150.60225255 -122.23436868 148.21224755 -122.3125 145.8125 C-122.35439453 145.13896484 -122.39628906 144.46542969 -122.43945312 143.77148438 C-122.53604266 139.81131339 -122.16672635 138.20537153 -119.640625 135.09375 C-112.95406289 129.79197886 -104.87086115 130.40789605 -96.71484375 131.23046875 C-95.31359866 131.41119008 -93.91255758 131.59349984 -92.51171875 131.77734375 C-87.02790286 132.2634674 -81.50018727 132.07041492 -76 132 C-76 132.33 -76 132.66 -76 133 C-78.97 133.33 -81.94 133.66 -85 134 C-78.90045645 134.33270238 -73.49947473 133.88552686 -68 131 C-66.94895617 129.36504293 -65.94011682 127.70116376 -65 126 C-61.8125 125.1875 -61.8125 125.1875 -59 125 C-59 123.68 -59 122.36 -59 121 C-58.030625 120.54625 -57.06125 120.0925 -56.0625 119.625 C-52.92920418 118.34213779 -52.92920418 118.34213779 -52 116 C-51.34 116 -50.68 116 -50 116 C-49.01 113.03 -48.02 110.06 -47 107 C-46.34 107 -45.68 107 -45 107 C-45.495 103.535 -45.495 103.535 -46 100 C-46.66 100 -47.32 100 -48 100 C-48 97.69 -48 95.38 -48 93 C-48.66 93 -49.32 93 -50 93 C-57.18636436 76.66735373 -57.05531368 57.60204221 -51.19140625 41 C-50 38 -50 38 -49 37 C-48.814375 35.329375 -48.814375 35.329375 -48.625 33.625 C-48 30 -48 30 -46.625 28.0625 C-45 27 -45 27 -42 27 C-42 26.01 -42 25.02 -42 24 C-39 22 -39 22 -36 22 C-35.67 19.69 -35.34 17.38 -35 15 C-33.02 15 -31.04 15 -29 15 C-28.67 14.01 -28.34 13.02 -28 12 C-26.01679982 10.96708324 -24.01652194 9.9662501 -22 9 C-21.67 8.34 -21.34 7.68 -21 7 C-17.45485493 6.31432901 -13.92481441 5.78598503 -10.34570312 5.3203125 C-5.53319791 4.5920228 -3.28967071 3.79757712 0 0 Z M67 95 C68 97 68 97 68 97 Z M-62 127 C-61 129 -61 129 -61 129 Z " fill="#25BDFD" transform="translate(225,66)"/>
<path d="M0 0 C3.20362045 1.66562737 6.56397474 2.80633027 9.9609375 4.01953125 C9.9609375 5.00953125 9.9609375 5.99953125 9.9609375 7.01953125 C11.0746875 7.24640625 12.1884375 7.47328125 13.3359375 7.70703125 C16.9609375 9.01953125 16.9609375 9.01953125 18.1484375 11.51953125 C18.550625 12.75703125 18.550625 12.75703125 18.9609375 14.01953125 C20.82738656 15.20283308 20.82738656 15.20283308 22.9609375 16.01953125 C23.6621875 16.55578125 24.3634375 17.09203125 25.0859375 17.64453125 C26.84221676 19.21665247 26.84221676 19.21665247 28.9609375 19.01953125 C29.0846875 20.13328125 29.2084375 21.24703125 29.3359375 22.39453125 C29.6075188 26.05056802 29.6075188 26.05056802 31.9609375 28.01953125 C33.66446399 31.63952505 34.94730921 34.97062973 36.0234375 38.83203125 C36.7023906 42.08021911 36.7023906 42.08021911 38.9609375 44.01953125 C39.42433828 48.39691803 39.28487544 52.80799806 39.2734375 57.20703125 C39.28955078 58.42712891 39.30566406 59.64722656 39.32226562 60.90429688 C39.32584336 67.49090604 38.93222263 72.15640713 35.9609375 78.01953125 C36.17062891 81.83618422 36.17062891 81.83618422 36.9609375 85.01953125 C35.9709375 85.01953125 34.9809375 85.01953125 33.9609375 85.01953125 C33.63480469 85.72980469 33.30867188 86.44007813 32.97265625 87.171875 C32.53566406 88.09097656 32.09867187 89.01007813 31.6484375 89.95703125 C31.21917969 90.87355469 30.78992188 91.79007812 30.34765625 92.734375 C28.9609375 95.01953125 28.9609375 95.01953125 25.9609375 96.01953125 C25.8371875 96.61765625 25.7134375 97.21578125 25.5859375 97.83203125 C24.66846466 101.04318618 22.59724478 102.04230079 19.9609375 104.01953125 C19.18363281 104.80457031 18.40632813 105.58960938 17.60546875 106.3984375 C5.80262094 118.09668105 -10.12423885 122.23134254 -26.43359375 123.10546875 C-29.99511979 122.98799713 -33.31206769 122.3322489 -36.76953125 121.5 C-39.92800268 120.83133909 -42.82291831 120.87969889 -46.0390625 121.01953125 C-46.0390625 120.35953125 -46.0390625 119.69953125 -46.0390625 119.01953125 C-46.93109375 118.90996094 -47.823125 118.80039063 -48.7421875 118.6875 C-49.91265625 118.52894531 -51.083125 118.37039062 -52.2890625 118.20703125 C-54.02929688 117.98080078 -54.02929688 117.98080078 -55.8046875 117.75 C-59.03489742 117.02047191 -60.69536668 116.32261848 -63.0390625 114.01953125 C-63.0390625 113.35953125 -63.0390625 112.69953125 -63.0390625 112.01953125 C-63.5546875 111.93703125 -64.0703125 111.85453125 -64.6015625 111.76953125 C-68.08361982 110.698129 -70.91107135 108.8842952 -74.0390625 107.01953125 C-74.0390625 106.35953125 -74.0390625 105.69953125 -74.0390625 105.01953125 C-74.6990625 105.01953125 -75.3590625 105.01953125 -76.0390625 105.01953125 C-76.5340625 102.04953125 -76.5340625 102.04953125 -77.0390625 99.01953125 C-78.0290625 98.68953125 -79.0190625 98.35953125 -80.0390625 98.01953125 C-80.0390625 97.02953125 -80.0390625 96.03953125 -80.0390625 95.01953125 C-81.0290625 94.68953125 -82.0190625 94.35953125 -83.0390625 94.01953125 C-83.0390625 92.69953125 -83.0390625 91.37953125 -83.0390625 90.01953125 C-84.0290625 90.01953125 -85.0190625 90.01953125 -86.0390625 90.01953125 C-86.17183594 89.45363281 -86.30460937 88.88773437 -86.44140625 88.3046875 C-86.70630859 87.20447266 -86.70630859 87.20447266 -86.9765625 86.08203125 C-87.23759766 84.98568359 -87.23759766 84.98568359 -87.50390625 83.8671875 C-87.87793819 82.01983227 -87.87793819 82.01983227 -89.0390625 81.01953125 C-89.32212484 78.47197021 -89.48722036 75.92443103 -89.66015625 73.3671875 C-89.83391974 70.83440352 -89.83391974 70.83440352 -92.0390625 69.01953125 C-93.29441128 57.62357284 -91.36775773 45.5866402 -87.0390625 35.01953125 C-86.7915625 33.41078125 -86.7915625 33.41078125 -86.5390625 31.76953125 C-86.2915625 30.40828125 -86.2915625 30.40828125 -86.0390625 29.01953125 C-85.0490625 28.52453125 -85.0490625 28.52453125 -84.0390625 28.01953125 C-82.92272098 26.36901837 -82.92272098 26.36901837 -81.9140625 24.45703125 C-81.2953125 23.32265625 -80.6765625 22.18828125 -80.0390625 21.01953125 C-79.3790625 21.01953125 -78.7190625 21.01953125 -78.0390625 21.01953125 C-77.8225 20.12234375 -77.8225 20.12234375 -77.6015625 19.20703125 C-77.1518186 17.45802721 -76.61013909 15.73276102 -76.0390625 14.01953125 C-75.3790625 14.01953125 -74.7190625 14.01953125 -74.0390625 14.01953125 C-73.7090625 13.02953125 -73.3790625 12.03953125 -73.0390625 11.01953125 C-72.0490625 11.01953125 -71.0590625 11.01953125 -70.0390625 11.01953125 C-69.7090625 10.02953125 -69.3790625 9.03953125 -69.0390625 8.01953125 C-67.0590625 7.68953125 -65.0790625 7.35953125 -63.0390625 7.01953125 C-62.7090625 6.02953125 -62.3790625 5.03953125 -62.0390625 4.01953125 C-60.06489982 2.96944472 -58.06323384 1.96965249 -56.0390625 1.01953125 C-55.3790625 0.35953125 -54.7190625 -0.30046875 -54.0390625 -0.98046875 C-51.9140625 -0.60546875 -51.9140625 -0.60546875 -50.0390625 0.01953125 C-50.5340625 -1.46546875 -50.5340625 -1.46546875 -51.0390625 -2.98046875 C-50.20375 -3.07134766 -50.20375 -3.07134766 -49.3515625 -3.1640625 C-48.206875 -3.28974609 -48.206875 -3.28974609 -47.0390625 -3.41796875 C-45.9253125 -3.53978516 -45.9253125 -3.53978516 -44.7890625 -3.6640625 C-42.61613777 -3.91407231 -40.44759474 -4.20214929 -38.28125 -4.50390625 C-25.4651977 -6.10666384 -11.5511845 -6.29421686 0 0 Z " fill="#2CD4FB" transform="translate(92.0390625,73.98046875)"/>
<path d="M0 0 C0.99 0 1.98 0 3 0 C3.495 0.99 3.495 0.99 4 2 C5.09957031 2.04898438 6.19914063 2.09796875 7.33203125 2.1484375 C15.69645811 2.55694379 23.80618753 3.15672856 32 5 C32.79535156 5.16628906 33.59070313 5.33257812 34.41015625 5.50390625 C36.29238277 5.92549843 38.15060876 6.45203223 40 7 C40.33 7.66 40.66 8.32 41 9 C45.20816079 11.16784041 49.35542174 11.52767001 54 12 C54.103125 12.639375 54.20625 13.27875 54.3125 13.9375 C54.539375 14.618125 54.76625 15.29875 55 16 C55.99 16.33 56.98 16.66 58 17 C58.12375 17.969375 58.2475 18.93875 58.375 19.9375 C58.58125 20.948125 58.7875 21.95875 59 23 C59.66 23.33 60.32 23.66 61 24 C61 24.99 61 25.98 61 27 C61.99 27 62.98 27 64 27 C65.625 28.0625 65.625 28.0625 67 30 C67.6875 33.6875 67.6875 33.6875 68 37 C68.99 37 69.98 37 71 37 C70.97679687 37.72445312 70.95359375 38.44890625 70.9296875 39.1953125 C70.91164063 40.16210938 70.89359375 41.12890625 70.875 42.125 C70.85179687 43.07632813 70.82859375 44.02765625 70.8046875 45.0078125 C70.86123096 48.0175226 70.86123096 48.0175226 72 50.75390625 C73.1003965 54.32589644 73.22832696 57.19905381 73.1953125 60.9296875 C73.18564453 62.86328125 73.18564453 62.86328125 73.17578125 64.8359375 C73.15907463 66.18229442 73.14214479 67.52864859 73.125 68.875 C73.11495664 70.24478517 73.10583317 71.61457742 73.09765625 72.984375 C73.07414412 76.32309756 73.0412793 79.66145761 73 83 C73.66 83.33 74.32 83.66 75 84 C75 84.66 75 85.32 75 86 C73.68 86.33 72.36 86.66 71 87 C71.03480469 87.69867188 71.06960938 88.39734375 71.10546875 89.1171875 C71.13253906 90.02726562 71.15960938 90.93734375 71.1875 91.875 C71.22230469 92.77992188 71.25710938 93.68484375 71.29296875 94.6171875 C71.14794922 95.79667969 71.14794922 95.79667969 71 97 C70.01 97.66 69.02 98.32 68 99 C66.80767387 101.05003955 66.80767387 101.05003955 66 103 C65.34 103 64.68 103 64 103 C64 103.99 64 104.98 64 106 C63.01 106.495 63.01 106.495 62 107 C61.54625 107.825 61.0925 108.65 60.625 109.5 C59 112 59 112 56.9375 112.5 C56.298125 112.665 55.65875 112.83 55 113 C54.28272222 114.64551962 53.61674772 116.31422289 53 118 C50 120 50 120 47 120 C46.67 120.99 46.34 121.98 46 123 C37.64577192 126.6415866 27.84619005 127.35935979 18.90625 128.53515625 C16.07074441 128.83948784 16.07074441 128.83948784 14 130 C8.76815167 130.30407324 3.56611525 130.14246627 -1.625 129.4375 C-6.19459543 128.85502015 -10.47173859 129.22075807 -15 130 C-15.68191406 130.10441406 -16.36382812 130.20882812 -17.06640625 130.31640625 C-19.58224987 131.20584591 -20.50731224 132.46628157 -22.125 134.5625 C-23.6328125 136.50390625 -23.6328125 136.50390625 -25 138 C-25.66 138 -26.32 138 -27 138 C-27.33 139.32 -27.66 140.64 -28 142 C-28.99 142 -29.98 142 -31 142 C-31 142.66 -31 143.32 -31 144 C-34.64219734 148.32510934 -38.74369987 151.03163656 -44 153 C-44.99 153 -45.98 153 -47 153 C-47 153.66 -47 154.32 -47 155 C-51.60702078 158.65384407 -57.42116957 159.58340682 -63 161 C-64.39756312 161.38968197 -65.79374278 161.78441746 -67.1875 162.1875 C-68.5796875 162.5896875 -68.5796875 162.5896875 -70 163 C-69.01 163.33 -68.02 163.66 -67 164 C-67 164.66 -67 165.32 -67 166 C-72.94 166 -78.88 166 -85 166 C-85 165.34 -85 164.68 -85 164 C-86.07636719 163.90203125 -87.15273437 163.8040625 -88.26171875 163.703125 C-106.78262623 161.86848673 -106.78262623 161.86848673 -115 158 C-116.01978692 156.68173886 -117.02198933 155.34954545 -118 154 C-120.09415804 153.20376178 -120.09415804 153.20376178 -122 153 C-122.13572155 150.60225255 -122.23436868 148.21224755 -122.3125 145.8125 C-122.35439453 145.13896484 -122.39628906 144.46542969 -122.43945312 143.77148438 C-122.53604266 139.81131339 -122.16672635 138.20537153 -119.640625 135.09375 C-112.95406289 129.79197886 -104.87086115 130.40789605 -96.71484375 131.23046875 C-95.31359866 131.41119008 -93.91255758 131.59349984 -92.51171875 131.77734375 C-87.02790286 132.2634674 -81.50018727 132.07041492 -76 132 C-76 132.33 -76 132.66 -76 133 C-78.97 133.33 -81.94 133.66 -85 134 C-78.90045645 134.33270238 -73.49947473 133.88552686 -68 131 C-66.94895617 129.36504293 -65.94011682 127.70116376 -65 126 C-61.8125 125.1875 -61.8125 125.1875 -59 125 C-59 123.68 -59 122.36 -59 121 C-58.030625 120.54625 -57.06125 120.0925 -56.0625 119.625 C-52.92920418 118.34213779 -52.92920418 118.34213779 -52 116 C-51.34 116 -50.68 116 -50 116 C-49.01 113.03 -48.02 110.06 -47 107 C-46.34 107 -45.68 107 -45 107 C-45.495 103.535 -45.495 103.535 -46 100 C-46.66 100 -47.32 100 -48 100 C-48 97.69 -48 95.38 -48 93 C-48.66 93 -49.32 93 -50 93 C-57.18636436 76.66735373 -57.05531368 57.60204221 -51.19140625 41 C-50 38 -50 38 -49 37 C-48.814375 35.329375 -48.814375 35.329375 -48.625 33.625 C-48 30 -48 30 -46.625 28.0625 C-45 27 -45 27 -42 27 C-42 26.01 -42 25.02 -42 24 C-39 22 -39 22 -36 22 C-35.67 19.69 -35.34 17.38 -35 15 C-33.02 15 -31.04 15 -29 15 C-28.67 14.01 -28.34 13.02 -28 12 C-26.01679982 10.96708324 -24.01652194 9.9662501 -22 9 C-21.67 8.34 -21.34 7.68 -21 7 C-17.45485493 6.31432901 -13.92481441 5.78598503 -10.34570312 5.3203125 C-5.53319791 4.5920228 -3.28967071 3.79757712 0 0 Z M-16 11 C-16 11.66 -16 12.32 -16 13 C-17.2375 13.309375 -17.2375 13.309375 -18.5 13.625 C-25.1101049 16.22182693 -30.15793866 20.88124945 -35 26 C-35.598125 26.556875 -36.19625 27.11375 -36.8125 27.6875 C-38.22363777 28.95218271 -38.22363777 28.95218271 -38 31 C-38.66 31 -39.32 31 -40 31 C-47.148924 43.25170435 -47.148924 43.25170435 -50 57 C-50.04624512 57.64275879 -50.09249023 58.28551758 -50.14013672 58.94775391 C-51.14556191 74.58730384 -48.24511798 88.39460978 -39.2578125 101.38671875 C-37.67291379 104.67956732 -38.09449554 106.52550816 -39 110 C-39.66 110 -40.32 110 -41 110 C-42.4160775 111.8529723 -42.4160775 111.8529723 -43.8125 114.1875 C-45.64846818 117.05648222 -47.39819056 119.59476287 -49.875 121.9375 C-50.57625 122.618125 -51.2775 123.29875 -52 124 C-52 124.66 -52 125.32 -52 126 C-52.99 126 -53.98 126 -55 126 C-56.35500919 127.31129922 -57.68671343 128.64691687 -59 130 C-61.25 131.25 -61.25 131.25 -63 132 C-63 132.66 -63 133.32 -63 134 C-75.86737561 137.9591925 -86.7765265 137.67182563 -99.796875 134.62109375 C-105.74427314 133.46787874 -109.96121109 133.66854602 -115.0625 137 C-117.69049128 141.06914779 -117.93371864 144.28000946 -117 149 C-114.91357966 152.50220557 -112.86593595 154.62821628 -109 156 C-108.01 156 -107.02 156 -106 156 C-106 156.66 -106 157.32 -106 158 C-98.40206209 160.04778647 -91.28355359 160.30159049 -83.4375 160.25 C-82.25736328 160.25773438 -81.07722656 160.26546875 -79.86132812 160.2734375 C-73.55457062 160.25932053 -68.03036097 159.87843135 -62 158 C-62 157.34 -62 156.68 -62 156 C-60.7625 155.814375 -59.525 155.62875 -58.25 155.4375 C-50.54523015 153.75246317 -42.98072007 149.09994895 -37 144 C-37 143.34 -37 142.68 -37 142 C-36.42507812 141.74992188 -35.85015625 141.49984375 -35.2578125 141.2421875 C-32.68973858 139.82930254 -30.93755331 138.20323813 -28.875 136.125 C-28.19179687 135.44695312 -27.50859375 134.76890625 -26.8046875 134.0703125 C-25.09250905 132.1061251 -24.13438535 130.31896474 -23 128 C-22.34 127.67 -21.68 127.34 -21 127 C-18.69963815 123.76651288 -18.69963815 123.76651288 -18 120 C-16.906875 120.495 -15.81375 120.99 -14.6875 121.5 C-11.20033755 123.18839906 -11.20033755 123.18839906 -8 123 C-8 123.66 -8 124.32 -8 125 C-2.42300949 126.26191919 2.99328178 126.18403003 8.6875 126.1875 C9.72583984 126.19974609 10.76417969 126.21199219 11.83398438 126.22460938 C18.46233056 126.23707648 24.56087237 125.58133578 31 124 C31 123.34 31 122.68 31 122 C31.66 121.9175 32.32 121.835 33 121.75 C36.99039163 120.75240209 40.38549643 118.92833317 44 117 C44 116.34 44 115.68 44 115 C44.556875 114.7525 45.11375 114.505 45.6875 114.25 C50.60827114 111.59012371 53.89630269 108.14517624 57.125 103.625 C57.78757812 102.70976562 58.45015625 101.79453125 59.1328125 100.8515625 C62.83153108 95.34277276 62.83153108 95.34277276 64 89 C64.66 89 65.32 89 66 89 C71.04404542 74.76858615 71.04404542 57.23141385 66 43 C65.34 43 64.68 43 64 43 C63.79375 42.01 63.5875 41.02 63.375 40 C61.4092388 33.11286502 56.1316035 27.77358465 51 23 C49.97712891 22.00419922 49.97712891 22.00419922 48.93359375 20.98828125 C44.43775609 16.75108738 41.14260237 14.04554934 35 13 C35 12.34 35 11.68 35 11 C33.58398286 10.51891725 32.16715563 10.04021859 30.75 9.5625 C29.56664062 9.16224609 29.56664062 9.16224609 28.359375 8.75390625 C22.60059486 6.91376624 17.39909266 6.81650006 11.375 6.8125 C10.42753906 6.80025391 9.48007813 6.78800781 8.50390625 6.77539062 C-0.06140323 6.75781475 -7.94408515 8.03203137 -16 11 Z M67 95 C68 97 68 97 68 97 Z M-62 127 C-61 129 -61 129 -61 129 Z " fill="#F5FCFE" transform="translate(225,66)"/>
<path d="M0 0 C3.20362045 1.66562737 6.56397474 2.80633027 9.9609375 4.01953125 C9.9609375 5.00953125 9.9609375 5.99953125 9.9609375 7.01953125 C11.0746875 7.24640625 12.1884375 7.47328125 13.3359375 7.70703125 C16.9609375 9.01953125 16.9609375 9.01953125 18.1484375 11.51953125 C18.550625 12.75703125 18.550625 12.75703125 18.9609375 14.01953125 C20.82738656 15.20283308 20.82738656 15.20283308 22.9609375 16.01953125 C23.6621875 16.55578125 24.3634375 17.09203125 25.0859375 17.64453125 C26.84221676 19.21665247 26.84221676 19.21665247 28.9609375 19.01953125 C29.0846875 20.13328125 29.2084375 21.24703125 29.3359375 22.39453125 C29.6075188 26.05056802 29.6075188 26.05056802 31.9609375 28.01953125 C33.66446399 31.63952505 34.94730921 34.97062973 36.0234375 38.83203125 C36.7023906 42.08021911 36.7023906 42.08021911 38.9609375 44.01953125 C39.42433828 48.39691803 39.28487544 52.80799806 39.2734375 57.20703125 C39.28955078 58.42712891 39.30566406 59.64722656 39.32226562 60.90429688 C39.32584336 67.49090604 38.93222263 72.15640713 35.9609375 78.01953125 C36.17062891 81.83618422 36.17062891 81.83618422 36.9609375 85.01953125 C35.9709375 85.01953125 34.9809375 85.01953125 33.9609375 85.01953125 C33.63480469 85.72980469 33.30867188 86.44007813 32.97265625 87.171875 C32.53566406 88.09097656 32.09867187 89.01007813 31.6484375 89.95703125 C31.21917969 90.87355469 30.78992188 91.79007812 30.34765625 92.734375 C28.9609375 95.01953125 28.9609375 95.01953125 25.9609375 96.01953125 C25.8371875 96.61765625 25.7134375 97.21578125 25.5859375 97.83203125 C24.66846466 101.04318618 22.59724478 102.04230079 19.9609375 104.01953125 C19.18363281 104.80457031 18.40632813 105.58960938 17.60546875 106.3984375 C5.80262094 118.09668105 -10.12423885 122.23134254 -26.43359375 123.10546875 C-29.99511979 122.98799713 -33.31206769 122.3322489 -36.76953125 121.5 C-39.92800268 120.83133909 -42.82291831 120.87969889 -46.0390625 121.01953125 C-46.0390625 120.35953125 -46.0390625 119.69953125 -46.0390625 119.01953125 C-46.93109375 118.90996094 -47.823125 118.80039063 -48.7421875 118.6875 C-49.91265625 118.52894531 -51.083125 118.37039062 -52.2890625 118.20703125 C-54.02929688 117.98080078 -54.02929688 117.98080078 -55.8046875 117.75 C-59.03489742 117.02047191 -60.69536668 116.32261848 -63.0390625 114.01953125 C-63.0390625 113.35953125 -63.0390625 112.69953125 -63.0390625 112.01953125 C-63.5546875 111.93703125 -64.0703125 111.85453125 -64.6015625 111.76953125 C-68.08361982 110.698129 -70.91107135 108.8842952 -74.0390625 107.01953125 C-74.0390625 106.35953125 -74.0390625 105.69953125 -74.0390625 105.01953125 C-74.6990625 105.01953125 -75.3590625 105.01953125 -76.0390625 105.01953125 C-76.5340625 102.04953125 -76.5340625 102.04953125 -77.0390625 99.01953125 C-78.0290625 98.68953125 -79.0190625 98.35953125 -80.0390625 98.01953125 C-80.0390625 97.02953125 -80.0390625 96.03953125 -80.0390625 95.01953125 C-81.0290625 94.68953125 -82.0190625 94.35953125 -83.0390625 94.01953125 C-83.0390625 92.69953125 -83.0390625 91.37953125 -83.0390625 90.01953125 C-84.0290625 90.01953125 -85.0190625 90.01953125 -86.0390625 90.01953125 C-86.17183594 89.45363281 -86.30460937 88.88773437 -86.44140625 88.3046875 C-86.70630859 87.20447266 -86.70630859 87.20447266 -86.9765625 86.08203125 C-87.23759766 84.98568359 -87.23759766 84.98568359 -87.50390625 83.8671875 C-87.87793819 82.01983227 -87.87793819 82.01983227 -89.0390625 81.01953125 C-89.32212484 78.47197021 -89.48722036 75.92443103 -89.66015625 73.3671875 C-89.83391974 70.83440352 -89.83391974 70.83440352 -92.0390625 69.01953125 C-93.29441128 57.62357284 -91.36775773 45.5866402 -87.0390625 35.01953125 C-86.7915625 33.41078125 -86.7915625 33.41078125 -86.5390625 31.76953125 C-86.2915625 30.40828125 -86.2915625 30.40828125 -86.0390625 29.01953125 C-85.0490625 28.52453125 -85.0490625 28.52453125 -84.0390625 28.01953125 C-82.92272098 26.36901837 -82.92272098 26.36901837 -81.9140625 24.45703125 C-81.2953125 23.32265625 -80.6765625 22.18828125 -80.0390625 21.01953125 C-79.3790625 21.01953125 -78.7190625 21.01953125 -78.0390625 21.01953125 C-77.8225 20.12234375 -77.8225 20.12234375 -77.6015625 19.20703125 C-77.1518186 17.45802721 -76.61013909 15.73276102 -76.0390625 14.01953125 C-75.3790625 14.01953125 -74.7190625 14.01953125 -74.0390625 14.01953125 C-73.7090625 13.02953125 -73.3790625 12.03953125 -73.0390625 11.01953125 C-72.0490625 11.01953125 -71.0590625 11.01953125 -70.0390625 11.01953125 C-69.7090625 10.02953125 -69.3790625 9.03953125 -69.0390625 8.01953125 C-67.0590625 7.68953125 -65.0790625 7.35953125 -63.0390625 7.01953125 C-62.7090625 6.02953125 -62.3790625 5.03953125 -62.0390625 4.01953125 C-60.06489982 2.96944472 -58.06323384 1.96965249 -56.0390625 1.01953125 C-55.3790625 0.35953125 -54.7190625 -0.30046875 -54.0390625 -0.98046875 C-51.9140625 -0.60546875 -51.9140625 -0.60546875 -50.0390625 0.01953125 C-50.5340625 -1.46546875 -50.5340625 -1.46546875 -51.0390625 -2.98046875 C-50.20375 -3.07134766 -50.20375 -3.07134766 -49.3515625 -3.1640625 C-48.206875 -3.28974609 -48.206875 -3.28974609 -47.0390625 -3.41796875 C-45.9253125 -3.53978516 -45.9253125 -3.53978516 -44.7890625 -3.6640625 C-42.61613777 -3.91407231 -40.44759474 -4.20214929 -38.28125 -4.50390625 C-25.4651977 -6.10666384 -11.5511845 -6.29421686 0 0 Z M-72.0390625 19.01953125 C-76.16358138 23.8025099 -78.74430877 27.80471333 -80.0390625 34.01953125 C-80.6990625 34.01953125 -81.3590625 34.01953125 -82.0390625 34.01953125 C-86.16209939 48.02681284 -89.91649173 66.26467279 -83.0390625 80.01953125 C-82.3790625 80.01953125 -81.7190625 80.01953125 -81.0390625 80.01953125 C-80.91273437 80.74914062 -80.78640625 81.47875 -80.65625 82.23046875 C-77.90941741 94.64337043 -68.3959133 103.40565904 -58.1015625 110.14453125 C-55.09362636 111.99625041 -52.51870006 113.35751204 -49.0390625 114.01953125 C-49.0390625 114.67953125 -49.0390625 115.33953125 -49.0390625 116.01953125 C-34.80764865 121.06357667 -17.27047635 121.06357667 -3.0390625 116.01953125 C-3.0390625 115.35953125 -3.0390625 114.69953125 -3.0390625 114.01953125 C-2.44738281 113.849375 -1.85570313 113.67921875 -1.24609375 113.50390625 C3.64657604 112.00338109 7.14551594 110.54145884 10.9609375 107.01953125 C11.6003125 106.47941406 12.2396875 105.93929687 12.8984375 105.3828125 C16.65412732 102.20014153 20.15652857 99.10929427 22.9609375 95.01953125 C22.9609375 94.35953125 22.9609375 93.69953125 22.9609375 93.01953125 C23.9509375 92.68953125 24.9409375 92.35953125 25.9609375 92.01953125 C27.20857781 89.76690334 27.20857781 89.76690334 28.1484375 87.08203125 C28.49261719 86.18613281 28.83679688 85.29023438 29.19140625 84.3671875 C30.06476432 82.11454045 30.06476432 82.11454045 29.9609375 80.01953125 C30.6209375 80.01953125 31.2809375 80.01953125 31.9609375 80.01953125 C34.4142173 73.33409944 34.29273295 66.83166699 34.2734375 59.76953125 C34.28955078 58.60550781 34.30566406 57.44148438 34.32226562 56.2421875 C34.32648458 48.70712965 33.35935438 42.16668651 30.9609375 35.01953125 C30.3009375 35.01953125 29.6409375 35.01953125 28.9609375 35.01953125 C28.6721875 33.92640625 28.3834375 32.83328125 28.0859375 31.70703125 C27.14200546 27.9793928 27.14200546 27.9793928 24.9609375 25.01953125 C24.3009375 25.01953125 23.6409375 25.01953125 22.9609375 25.01953125 C22.71601562 24.28734375 22.47109375 23.55515625 22.21875 22.80078125 C18.912601 15.49029029 11.12656184 9.43909778 3.9609375 6.01953125 C3.3009375 6.01953125 2.6409375 6.01953125 1.9609375 6.01953125 C1.9609375 5.35953125 1.9609375 4.69953125 1.9609375 4.01953125 C0.8059375 3.56578125 -0.3490625 3.11203125 -1.5390625 2.64453125 C-2.51359375 2.26167969 -2.51359375 2.26167969 -3.5078125 1.87109375 C-10.83259775 -0.59310869 -17.2193715 -1.29397377 -24.9140625 -1.23046875 C-25.84347656 -1.23820312 -26.77289063 -1.2459375 -27.73046875 -1.25390625 C-45.72607005 -1.20370931 -60.04946156 5.61641947 -72.0390625 19.01953125 Z " fill="#F3FCFE" transform="translate(92.0390625,73.98046875)"/>
<path d="M0 0 C7.39461072 1.83505964 15.37731635 1.08429968 22.9375 0.9375 C23.4325 2.4225 23.4325 2.4225 23.9375 3.9375 C21.9575 4.5975 19.9775 5.2575 17.9375 5.9375 C17.2775 5.2775 16.6175 4.6175 15.9375 3.9375 C13.86395161 3.65646929 13.86395161 3.65646929 11.5625 3.75 C10.40621094 3.75966797 10.40621094 3.75966797 9.2265625 3.76953125 C6.94506245 3.86976015 6.94506245 3.86976015 4.8203125 4.4765625 C2.3139089 5.09016338 0.41010117 4.55565029 -2.0625 3.9375 C-2.0625 3.2775 -2.0625 2.6175 -2.0625 1.9375 C-6.87315519 0.97536896 -11.18572587 0.46555412 -16.0625 0.9375 C-18.77134648 3.30774067 -19.84067882 4.85612175 -20.5625 8.375 C-19.83495991 12.10364296 -18.59044602 14.09356072 -16.0625 16.9375 C-12.48807078 18.45501422 -8.94539025 18.9375 -5.0625 18.9375 C-5.0625 19.5975 -5.0625 20.2575 -5.0625 20.9375 C-1.22918301 20.96679981 2.60410471 20.98439897 6.4375 21 C8.05398437 21.01256836 8.05398437 21.01256836 9.703125 21.02539062 C15.56180555 21.04325246 21.13856727 20.73551827 26.9375 19.9375 C29.9375 20.375 29.9375 20.375 31.9375 20.9375 C25.60717547 25.15771635 18.03597529 24.12107033 10.6875 24.125 C8.90279297 24.14336914 8.90279297 24.14336914 7.08203125 24.16210938 C0.36861637 24.17323658 -5.57829086 23.6976984 -12.0625 21.9375 C-12.0625 21.2775 -12.0625 20.6175 -12.0625 19.9375 C-12.784375 19.855 -13.50625 19.7725 -14.25 19.6875 C-17.64962309 18.78093384 -19.48680315 17.29855545 -22.0625 14.9375 C-23.80015543 11.46218913 -23.65835352 7.7286999 -23.0625 3.9375 C-16.970483 -3.96565719 -8.79125018 -2.43717827 0 0 Z " fill="#32D5FC" transform="translate(131.0625,202.0625)"/>
<path d="M0 0 C-2.76223278 2.76223278 -5.20706617 2.57856291 -9 3 C-9.33 3.99 -9.66 4.98 -10 6 C-11.68744919 6.98848127 -13.37952522 7.97054801 -15.1015625 8.89746094 C-27.22254447 15.93685839 -36.02155409 28.23297065 -39.5625 41.5625 C-39.81128906 42.49191406 -40.06007813 43.42132813 -40.31640625 44.37890625 C-40.54199219 45.24386719 -40.76757812 46.10882813 -41 47 C-41.25885986 47.9439563 -41.25885986 47.9439563 -41.52294922 48.90698242 C-42.00182856 51.00802265 -42.20239604 52.95946817 -42.31640625 55.109375 C-42.35830078 55.86347656 -42.40019531 56.61757812 -42.44335938 57.39453125 C-42.50233398 58.56048828 -42.50233398 58.56048828 -42.5625 59.75 C-42.60568359 60.54277344 -42.64886719 61.33554688 -42.69335938 62.15234375 C-42.79902991 64.10137815 -42.89997966 66.05066748 -43 68 C-47.1198444 61.34233146 -45.70895787 51.82926011 -44.1015625 44.45703125 C-43.17313358 40.60645889 -42.11835692 36.79941793 -41 33 C-40.34 33 -39.68 33 -39 33 C-38.85884766 32.43877441 -38.71769531 31.87754883 -38.57226562 31.29931641 C-36.76531457 24.99750837 -34.05514051 21.02377701 -29.5 16.375 C-28.87778564 15.72692383 -28.25557129 15.07884766 -27.61450195 14.41113281 C-22.23303305 8.95320889 -8.48508317 -4.24254158 0 0 Z " fill="#37E5FB" transform="translate(51,75)"/>
<path d="M0 0 C0.495 0.99 0.495 0.99 1 2 C-2.80835489 7.49630706 -6.77643975 11.84348531 -12 16 C-12.78375 16.721875 -13.5675 17.44375 -14.375 18.1875 C-17.98384811 20.6793237 -21.81194335 21.79559155 -26 23 C-26 23.66 -26 24.32 -26 25 C-34.6336912 27.65652037 -42.9556969 28.92731204 -52 28 C-52.99 27.34 -53.98 26.68 -55 26 C-51.93796326 25.66231828 -48.87530542 25.33063107 -45.8125 25 C-44.51602539 24.85691406 -44.51602539 24.85691406 -43.19335938 24.7109375 C-39.11207075 24.27309811 -35.11211498 23.86378087 -31 24 C-31 23.34 -31 22.68 -31 22 C-30.12859375 21.90847656 -29.2571875 21.81695312 -28.359375 21.72265625 C-24.61825349 20.91788011 -22.39420187 19.58719603 -19.25 17.4375 C-14.18712274 14 -14.18712274 14 -12 14 C-12 13.34 -12 12.68 -12 12 C-10.390625 10.44921875 -10.390625 10.44921875 -8.25 8.6875 C-5.09829823 6.01637687 -2.44230671 3.35817172 0 0 Z " fill="#28BCFD" transform="translate(115,165)"/>
<path d="M0 0 C0.66 0.33 1.32 0.66 2 1 C2.05843491 5.02077152 2.0937424 9.04143259 2.125 13.0625 C2.14175781 14.19623047 2.15851563 15.32996094 2.17578125 16.49804688 C2.21019727 22.40039384 2.04944811 27.44067027 0 33 C-0.66 33 -1.32 33 -2 33 C-2.18175781 33.63808594 -2.36351563 34.27617187 -2.55078125 34.93359375 C-2.80214844 35.75988281 -3.05351563 36.58617187 -3.3125 37.4375 C-3.55613281 38.26121094 -3.79976563 39.08492187 -4.05078125 39.93359375 C-4.52064453 40.95646484 -4.52064453 40.95646484 -5 42 C-6.485 42.495 -6.485 42.495 -8 43 C-7.566875 41.9790625 -7.566875 41.9790625 -7.125 40.9375 C-5.87402645 37.67106907 -4.92552045 34.37153877 -4 31 C-3.34 31 -2.68 31 -2 31 C-1.04710229 24.33772358 -0.69409823 17.7220323 -0.4375 11 C-0.37272461 9.40865234 -0.37272461 9.40865234 -0.30664062 7.78515625 C-0.20144004 5.19020849 -0.09929881 2.59517916 0 0 Z " fill="#25BCFC" transform="translate(124,121)"/>
<path d="M0 0 C-2.76223278 2.76223278 -5.20706617 2.57856291 -9 3 C-9.33 3.99 -9.66 4.98 -10 6 C-11.60725529 6.97105007 -13.22267397 7.93147549 -14.87890625 8.81640625 C-18.73753935 10.96956615 -22.3487714 13.51617102 -26 16 C-25.02680986 10.70897774 -21.28605614 8.6280946 -17.140625 5.67578125 C-4.92270583 -2.46135292 -4.92270583 -2.46135292 0 0 Z " fill="#42ECFB" transform="translate(51,75)"/>
<path d="M0 0 C8.57142857 0.85714286 8.57142857 0.85714286 12 3 C12 3.66 12 4.32 12 5 C12.886875 5.226875 13.77375 5.45375 14.6875 5.6875 C18.43380532 7.17188513 20.33729434 9.02403485 23 12 C19.41820734 12 18.4423393 11.15497104 15.5625 9.125 C12.77876152 7.17497 10.0795388 5.44506832 7 4 C7 3.34 7 2.68 7 2 C6.21625 2.185625 5.4325 2.37125 4.625 2.5625 C2 3 2 3 0 2 C0 1.34 0 0.68 0 0 Z " fill="#23DEFC" transform="translate(82,75)"/>
<path d="M0 0 C-1 3 -1 3 -2.9375 4.75 C-7.40799212 6.57469066 -11.31778089 5.75461007 -16 5 C-13.32975467 3.21983645 -10.94969139 2.02836981 -8 0.8125 C-7.13375 0.44769531 -6.2675 0.08289063 -5.375 -0.29296875 C-3 -1 -3 -1 0 0 Z " fill="#F3FCFF" transform="translate(179,218)"/>
<path d="M0 0 C0.66 0.33 1.32 0.66 2 1 C0.59155282 4.21524305 -1.10344786 6.32183868 -3.625 8.75 C-4.57246094 9.67039062 -4.57246094 9.67039062 -5.5390625 10.609375 C-6.02117187 11.06828125 -6.50328125 11.5271875 -7 12 C-7.99 11.34 -8.98 10.68 -10 10 C-7.02911382 6.00073014 -3.87051275 3.07881696 0 0 Z " fill="#2CCAFC" transform="translate(198,84)"/>
<path d="M0 0 C1.18613892 0.00785522 1.18613892 0.00785522 2.39624023 0.01586914 C3.67724609 0.02070313 3.67724609 0.02070313 4.98413086 0.02563477 C5.88196289 0.03401367 6.77979492 0.04239258 7.70483398 0.05102539 C8.6065332 0.05553711 9.50823242 0.06004883 10.43725586 0.06469727 C12.67234712 0.07652315 14.90730835 0.09300319 17.14233398 0.11352539 C17.14233398 1.10352539 17.14233398 2.09352539 17.14233398 3.11352539 C14.18375989 3.16731765 11.22615677 3.20709632 8.26733398 3.23852539 C7.00469727 3.26366211 7.00469727 3.26366211 5.71655273 3.28930664 C4.91088867 3.29575195 4.10522461 3.30219727 3.27514648 3.30883789 C2.53151855 3.31931152 1.78789062 3.32978516 1.02172852 3.34057617 C-0.85766602 3.11352539 -0.85766602 3.11352539 -2.85766602 1.11352539 C-1.85766602 0.11352539 -1.85766602 0.11352539 0 0 Z " fill="#18A8FD" transform="translate(227.857666015625,188.886474609375)"/>
<path d="M0 0 C0.88365234 0.00451172 1.76730469 0.00902344 2.67773438 0.01367188 C4.84768559 0.02540134 7.01760172 0.04333505 9.1875 0.0625 C9.1875 0.3925 9.1875 0.7225 9.1875 1.0625 C8.14851563 1.11148438 7.10953125 1.16046875 6.0390625 1.2109375 C-1.73203317 1.61459446 -9.22822228 2.18466201 -16.8125 4.0625 C-14.8125 1.0625 -14.8125 1.0625 -12.80078125 0.37890625 C-8.52764877 -0.07354307 -4.29334693 -0.04162081 0 0 Z " fill="#18E7FB" transform="translate(65.8125,72.9375)"/>
<path d="M0 0 C0.99 0.33 1.98 0.66 3 1 C-1.35625651 4.9774516 -7.25211604 6.83176221 -13.0625 7.1875 C-14.0215625 7.0946875 -14.0215625 7.0946875 -15 7 C-12.28871865 5.1924791 -9.9530864 4.10554009 -6.9375 2.9375 C-3.42115561 1.57582135 -3.42115561 1.57582135 0 0 Z " fill="#21CAFD" transform="translate(173,216)"/>
<path d="M0 0 C0.33 0.99 0.66 1.98 1 3 C-9.14108911 13.43935644 -9.14108911 13.43935644 -14 14 C-10.40020956 10.28771611 -6.61652481 6.89483588 -2.671875 3.55078125 C-0.89673637 2.08649533 -0.89673637 2.08649533 0 0 Z " fill="#1FA7FD" transform="translate(279,169)"/>
<path d="M0 0 C1.18239258 0.00676758 1.18239258 0.00676758 2.38867188 0.01367188 C4.32164761 0.02538688 6.25458393 0.04332002 8.1875 0.0625 C8.1875 0.3925 8.1875 0.7225 8.1875 1.0625 C7.28128906 1.11148438 6.37507813 1.16046875 5.44140625 1.2109375 C-1.52151291 1.63829127 -8.05671429 2.31531404 -14.8125 4.0625 C-14.4825 3.0725 -14.1525 2.0825 -13.8125 1.0625 C-9.18790756 -0.11450048 -4.73383538 -0.05158412 0 0 Z " fill="#11C1FC" transform="translate(233.8125,72.9375)"/>
<path d="M0 0 C1.77624543 1.54456124 2.9006995 2.78012031 3.875 4.9375 C4 7 4 7 2.5625 9.25 C2.046875 9.8275 1.53125 10.405 1 11 C-1.125 3.375 -1.125 3.375 0 0 Z " fill="#D4F1FD" transform="translate(184,165)"/>
<path d="M0 0 C1.65 1.32 3.3 2.64 5 4 C-0.78898419 4.20674944 -5.42932723 3.59162079 -11 2 C-7.58028525 1.05049135 -4.54667612 1 -1 1 C-0.67 0.67 -0.34 0.34 0 0 Z " fill="#44C8FC" transform="translate(58,189)"/>
<path d="M0 0 C1.6266848 0.28211877 3.25132896 0.57602375 4.875 0.875 C5.77992188 1.03742188 6.68484375 1.19984375 7.6171875 1.3671875 C10 2 10 2 12 4 C9.50702038 4.89034986 8.44895901 5.21044954 6 4.0625 C5.34 3.711875 4.68 3.36125 4 3 C2.68 3 1.36 3 0 3 C0 2.01 0 1.02 0 0 Z " fill="#38C6FC" transform="translate(248,74)"/>
<path d="M0 0 C3.47478479 3.01148016 4.97043629 5.50735835 6 10 C5.54296875 12.1875 5.54296875 12.1875 5 14 C4.16235732 12.04350603 3.33000941 10.08474444 2.5 8.125 C2.0359375 7.03445312 1.571875 5.94390625 1.09375 4.8203125 C0 2 0 2 0 0 Z " fill="#1AC7FC" transform="translate(117,103)"/>
<path d="M0 0 C-1.5625 2.0625 -1.5625 2.0625 -4 4 C-7.75 3.75 -7.75 3.75 -11 3 C-3.71428571 -1.85714286 -3.71428571 -1.85714286 0 0 Z " fill="#CBF2FD" transform="translate(174,220)"/>
<path d="M0 0 C4.43090471 1.20842856 6.98112756 2.51668565 10 6 C5.16743695 5.58578031 3.17320782 3.53586014 0 0 Z " fill="#27C8FC" transform="translate(32,181)"/>
<path d="M0 0 C1 3 1 3 0.22265625 5.04296875 C-0.16019531 5.75066406 -0.54304688 6.45835937 -0.9375 7.1875 C-1.31777344 7.90292969 -1.69804688 8.61835938 -2.08984375 9.35546875 C-2.54037109 10.16951172 -2.54037109 10.16951172 -3 11 C-3.66 11 -4.32 11 -5 11 C-3.55049545 7.2089881 -1.84827434 3.6125362 0 0 Z " fill="#17B6FC" transform="translate(121,153)"/>
<path d="M0 0 C0 0.66 0 1.32 0 2 C-3.19641774 4.39731331 -6.00118212 6.38479725 -10 7 C-3.24137931 0 -3.24137931 0 0 0 Z " fill="#D4F3FD" transform="translate(188,210)"/>
<path d="M0 0 C-1 3 -1 3 -2.8125 4.25 C-5.33943414 5.11637742 -6.52221994 4.88492145 -9 4 C-2.25 0 -2.25 0 0 0 Z " fill="#1CA7FE" transform="translate(264,183)"/>
<path d="M0 0 C1.32 0 2.64 0 4 0 C4 0.99 4 1.98 4 3 C3.34 3 2.68 3 2 3 C2 3.99 2 4.98 2 6 C2.66 6.33 3.32 6.66 4 7 C3.01 8.485 3.01 8.485 2 10 C1.34 6.7 0.68 3.4 0 0 Z " fill="#32C0FC" transform="translate(175,139)"/>
<path d="M0 0 C8.03571429 0.66964286 8.03571429 0.66964286 12 4 C10.3745692 3.85904936 8.74965949 3.71207913 7.125 3.5625 C6.22007813 3.48128906 5.31515625 3.40007812 4.3828125 3.31640625 C2 3 2 3 0 2 C0 1.34 0 0.68 0 0 Z " fill="#52E9FD" transform="translate(82,75)"/>
<path d="M0 0 C0 0.66 0 1.32 0 2 C-3.3 2 -6.6 2 -10 2 C-3.6 -1.2 -3.6 -1.2 0 0 Z " fill="#29AEFD" transform="translate(256,188)"/>
<path d="M0 0 C1.26339822 3.79019466 0.49719015 5.37522384 -1 9 C-1.99 9.495 -1.99 9.495 -3 10 C-2.69201674 8.51988629 -2.378482 7.04092675 -2.0625 5.5625 C-1.88847656 4.73878906 -1.71445313 3.91507812 -1.53515625 3.06640625 C-1 1 -1 1 0 0 Z " fill="#22E3FC" transform="translate(13,105)"/>
<path d="M0 0 C0.6875 1.8125 0.6875 1.8125 1 4 C-0.4375 5.75 -0.4375 5.75 -2 7 C-2.66 6.34 -3.32 5.68 -4 5 C-2.68 3.35 -1.36 1.7 0 0 Z " fill="#3BCDFC" transform="translate(192,89)"/>
<path d="M0 0 C0.66 0 1.32 0 2 0 C1.67 0.66 1.34 1.32 1 2 C0.67 1.34 0.34 0.68 0 0 Z " fill="#FFFFFF" transform="translate(163,227)"/>
</svg>
